<svg xmlns="http://www.w3.org/2000/svg" viewBox="0 0 313.04 69.73"><title>youtube_logo_dark</title><g id="Camada_2" data-name="Camada 2"><g id="Camada_1-2" data-name="Camada 1"><path d="M98,12.35C96.8,6.42,93,2.71,87.07,1.77A100.18,100.18,0,0,0,77,.77C71.33.44,65.67.26,60,.16A2.45,2.45,0,0,1,58.7,0H40.84a2.21,2.21,0,0,1-1.19.16c-5.7.11-11.4.26-17.09.6A69.81,69.81,0,0,0,11.77,1.92C6.54,3.08,3.32,6.38,2,11.52A56.14,56.14,0,0,0,.74,20.18Q.29,25.28.19,30.39a4.6,4.6,0,0,1-.07.66.73.73,0,0,1-.12.41v6.83a2.62,2.62,0,0,1,.18,1.07c.07,2.28.15,4.55.3,6.82a90.35,90.35,0,0,0,1.27,11c1.15,6,5.07,9.87,11,10.81,3.22.51,6.47.78,9.72,1,6.79.42,13.59.56,20.39.7,10.27.2,20.53-.07,30.79-.48A124.79,124.79,0,0,0,87.18,68a12.52,12.52,0,0,0,10.65-9.72A86.73,86.73,0,0,0,99.5,43.68a157.4,157.4,0,0,0,0-17.78A92.06,92.06,0,0,0,98,12.35ZM40,20.18C40.8,20.3,64.14,33.59,65.89,35L40.18,49.75C39.83,48.86,39.69,23.28,40,20.18Z"/><path d="M280.24,24a6.64,6.64,0,0,0-4.72-3.54c-4.09-.83-7.35.56-9.91,3.76-.32.4-.59.84-.89,1.26l-.22,0V2.81h-9.35V64.62H263c.55-1.29.54-2.7,1.14-3.92.15.06.2.06.23.09a2,2,0,0,1,.23.28A8.88,8.88,0,0,0,271,65.24c3.3.59,6.26-.06,8.36-3A11.94,11.94,0,0,0,281,59a31,31,0,0,0,1.5-9.35c.12-6.58.31-13.17-.49-19.72A16.41,16.41,0,0,0,280.24,24Zm-7.77,27.59a14.54,14.54,0,0,1-.91,4.51,3.22,3.22,0,0,1-3,2.24,4.16,4.16,0,0,1-3.79-2,2.12,2.12,0,0,1-.16-1.19V43.55c0-3.85,0-7.71,0-11.57a5.23,5.23,0,0,1,3.59-4.73,2.76,2.76,0,0,1,3.37,1.48,10.83,10.83,0,0,1,.91,3.52,37.57,37.57,0,0,1,.28,4.74C272.75,41.87,272.87,46.74,272.47,51.61Z"/><path d="M188.76,22.51c0,1.83,0,3.66,0,5.49,0,8.9,0,17.8,0,26.7a3.13,3.13,0,0,1-1,2.5,5.39,5.39,0,0,1-2,1.2c-2,.68-3.37-.09-3.84-2.12a15.87,15.87,0,0,1-.27-3.64q0-15,0-30c0-.47.14-1-.15-1.4h-9.46a2.35,2.35,0,0,0-.14,1.17q0,15.66,0,31.33a29,29,0,0,0,.29,4.37c.84,5.42,4.32,8,9.72,7.28a9.87,9.87,0,0,0,7.23-4.89c.21-.34.28-.84.87-1l.85,5.18h7.57V21.21H189A2.23,2.23,0,0,0,188.76,22.51Z"/><path d="M239.24,22.74c0,10.69,0,21.38,0,32.07a3.17,3.17,0,0,1-1.33,2.7,5.37,5.37,0,0,1-1.71.93,2.6,2.6,0,0,1-3.69-2,16.8,16.8,0,0,1-.34-4.24c0-9.8,0-19.59,0-29.38a2.42,2.42,0,0,0-.22-1.57h-9.4a3.41,3.41,0,0,0-.15,1.47q0,9.69,0,19.39c0,3.82,0,7.64,0,11.46A19.75,19.75,0,0,0,223.52,61a6.87,6.87,0,0,0,5.07,4.34,10.53,10.53,0,0,0,5-.09,10,10,0,0,0,6.13-4.7c.21-.34.3-.84.86-1,.4,1.75.46,3.5.91,5.17h7.47V21.23H239.4A3.22,3.22,0,0,0,239.24,22.74Z"/><path d="M166.52,35.08a25.44,25.44,0,0,0-2-8.5,9.77,9.77,0,0,0-6.95-5.78,19.14,19.14,0,0,0-7.76-.21,10.65,10.65,0,0,0-8.71,7.27,26.37,26.37,0,0,0-1.45,7.51,124.61,124.61,0,0,0,0,15.46A25,25,0,0,0,141.37,59a9.44,9.44,0,0,0,6.38,5.75,20.26,20.26,0,0,0,8.83.49,10.22,10.22,0,0,0,8.56-7.21,23.66,23.66,0,0,0,1.14-4.84,72.55,72.55,0,0,0,.44-10.31A74.25,74.25,0,0,0,166.52,35.08Zm-9.73,7.84c0,2.92,0,5.85,0,8.77a16.68,16.68,0,0,1-.5,4.1,7.79,7.79,0,0,1-.46,1.25,2.72,2.72,0,0,1-2.68,1.75,2.88,2.88,0,0,1-2.75-1.87,9.4,9.4,0,0,1-.73-2.94c-.13-1.54-.25-3.07-.24-4.62,0-4.34,0-8.69,0-13a29.89,29.89,0,0,1,.47-5.82,9.17,9.17,0,0,1,.49-1.62,3,3,0,0,1,5.48-.1,12.83,12.83,0,0,1,.91,5.12C156.82,36.91,156.79,39.92,156.79,42.92Z"/><path d="M141.54,6.48c.12-.45.42-.9.2-1.47h-9.47c-2.18,9.9-4.57,19.75-6.48,29.73-1.88-10-4.23-19.79-6.3-29.73h-9.55a1.74,1.74,0,0,0,.17,1.12q5.3,19.25,10.64,38.47a8.77,8.77,0,0,1,.31,2.28c0,5.44,0,10.89,0,16.33,0,.47-.15,1,.21,1.43h9.18a3.17,3.17,0,0,0,.16-1.45q0-8.23,0-16.46a8.9,8.9,0,0,1,.35-2.51Q136.27,25.35,141.54,6.48Z"/><path d="M312.73,31.89a19.19,19.19,0,0,0-1.49-6.13,8.75,8.75,0,0,0-5.93-5,21.56,21.56,0,0,0-6.79-.49,10.42,10.42,0,0,0-9.89,7.38A27.47,27.47,0,0,0,287.17,36q-.21,6.77,0,13.53a27.69,27.69,0,0,0,1.48,8.36,10.05,10.05,0,0,0,8,7,19.44,19.44,0,0,0,6.32.16c6.41-.87,10.56-5,9.64-13.3-2.73-.09-5.46-.41-8.28-.37,0,.52,0,1-.07,1.4a14.11,14.11,0,0,1-.59,3.59,3.19,3.19,0,0,1-3.42,2.38,3,3,0,0,1-3.15-2.51,5.67,5.67,0,0,1-.23-1.07,58.5,58.5,0,0,1-.28-8.88c0-.06.08-.13.21-.33h16a1.57,1.57,0,0,0,.15-.36A137.3,137.3,0,0,0,312.73,31.89Zm-9,8.46h-7a1.63,1.63,0,0,1-.13-.4,73.47,73.47,0,0,1,.31-9.73,6.23,6.23,0,0,1,.22-.95c.51-1.7,1.3-2.39,2.78-2.42a3.09,3.09,0,0,1,3.38,2.39,11,11,0,0,1,.46,3c.07,2.51.07,5,.09,7.55A4.09,4.09,0,0,1,303.72,40.35Z"/><path d="M225.05,5H196.27v7.84H206V64.63h9.54V12.84h9.59A37.59,37.59,0,0,0,225.05,5Z"/></g></g></svg>